<svg width="313" height="65" viewBox="0 0 313 65" fill="none" xmlns="http://www.w3.org/2000/svg">
<g clip-path="url(#clip0_2271_667)">
<path d="M40.1465 52.1465H37.855V49.8549H40.1465V52.1465Z" fill="#FEA45A"/>
</g>
<g clip-path="url(#clip1_2271_667)">
<path d="M43.8086 52.1465H41.5171V49.8549H43.8086V52.1465Z" fill="#FEA45A"/>
</g>
<g clip-path="url(#clip2_2271_667)">
<path d="M40.1465 55.7812H37.855V53.4897H40.1465V55.7812Z" fill="#FEA45A"/>
</g>
<g clip-path="url(#clip3_2271_667)">
<path d="M43.8086 55.7812H41.5171V53.4897H43.8086V55.7812Z" fill="#FEA45A"/>
</g>
<mask id="mask0_2271_667" style="mask-type:luminance" maskUnits="userSpaceOnUse" x="6" y="42" width="3" height="4">
<path d="M8.87449 45.9267L6.55713 44.708V42.3906L8.87449 43.6153V45.9267Z" fill="white"/>
</mask>
<g mask="url(#mask0_2271_667)">
<path d="M8.87513 45.9297L6.55957 44.7104V42.3942L8.87513 43.6141V45.9297Z" fill="#FEA45A"/>
</g>
<mask id="mask1_2271_667" style="mask-type:luminance" maskUnits="userSpaceOnUse" x="11" y="44" width="4" height="5">
<path d="M14.0073 48.4559L11.6899 47.2371V44.9258L14.0073 46.1445V48.4559Z" fill="white"/>
</mask>
<g mask="url(#mask1_2271_667)">
<path d="M14.0079 48.457L11.6924 47.2377V44.9221L14.0079 46.1415V48.457Z" fill="#FEA45A"/>
</g>
<mask id="mask2_2271_667" style="mask-type:luminance" maskUnits="userSpaceOnUse" x="6" y="47" width="3" height="4">
<path d="M8.87449 50.538L6.55713 49.3193V47.002L8.87449 48.2207V50.538Z" fill="white"/>
</mask>
<g mask="url(#mask2_2271_667)">
<path d="M8.87513 50.5352L6.55957 49.3158V47.0003L8.87513 48.2196V50.5352Z" fill="#FEA45A"/>
</g>
<mask id="mask3_2271_667" style="mask-type:luminance" maskUnits="userSpaceOnUse" x="11" y="49" width="4" height="5">
<path d="M14.0073 53.0654L11.6899 51.8467V49.5293L14.0073 50.748V53.0654Z" fill="white"/>
</mask>
<g mask="url(#mask3_2271_667)">
<path d="M14.0079 53.0645L11.6924 51.8445V49.529L14.0079 50.7483V53.0645Z" fill="#FEA45A"/>
</g>
<mask id="mask4_2271_667" style="mask-type:luminance" maskUnits="userSpaceOnUse" x="6" y="51" width="3" height="5">
<path d="M8.87449 55.1396L6.55713 53.9209V51.6035L8.87449 52.8222V55.1396Z" fill="white"/>
</mask>
<g mask="url(#mask4_2271_667)">
<path d="M8.87513 55.1445L6.55957 53.9252V51.6097L8.87513 52.829V55.1445Z" fill="#FEA45A"/>
</g>
<mask id="mask5_2271_667" style="mask-type:luminance" maskUnits="userSpaceOnUse" x="11" y="54" width="4" height="4">
<path d="M14.0073 57.6669L11.6899 56.4482V54.1309L14.0073 55.3556V57.6669Z" fill="white"/>
</mask>
<g mask="url(#mask5_2271_667)">
<path d="M14.0079 57.6719L11.6924 56.4526V54.1364L14.0079 55.3563V57.6719Z" fill="#FEA45A"/>
</g>
<mask id="mask6_2271_667" style="mask-type:luminance" maskUnits="userSpaceOnUse" x="6" y="56" width="3" height="4">
<path d="M8.87449 59.7548L6.55713 58.5301V56.2188L8.87449 57.4375V59.7548Z" fill="white"/>
</mask>
<g mask="url(#mask6_2271_667)">
<path d="M8.87513 59.75L6.55957 58.5307V56.2151L8.87513 57.4344V59.75Z" fill="#FEA45A"/>
</g>
<mask id="mask7_2271_667" style="mask-type:luminance" maskUnits="userSpaceOnUse" x="11" y="58" width="4" height="5">
<path d="M14.0073 62.2822L11.6899 61.0635V58.7461L14.0073 59.9648V62.2822Z" fill="white"/>
</mask>
<g mask="url(#mask7_2271_667)">
<path d="M14.0079 62.2793L11.6924 61.06V58.7444L14.0079 59.9637V62.2793Z" fill="#FEA45A"/>
</g>
<mask id="mask8_2271_667" style="mask-type:luminance" maskUnits="userSpaceOnUse" x="6" y="60" width="3" height="4">
<path d="M8.87449 63.7333L6.55713 62.5146V60.1973L8.87449 61.416V63.7333Z" fill="white"/>
</mask>
<g mask="url(#mask8_2271_667)">
<path d="M8.87513 63.7344L6.55957 62.5151V60.1995L8.87513 61.4188V63.7344Z" fill="#FEA45A"/>
</g>
<mask id="mask9_2271_667" style="mask-type:luminance" maskUnits="userSpaceOnUse" x="11" y="62" width="4" height="3">
<path d="M14.0073 63.9513V64.0894H11.6899V62.7266L14.0073 63.9513Z" fill="white"/>
</mask>
<g mask="url(#mask9_2271_667)">
<path d="M14.0079 63.9474V64.0879H11.6924V62.7275L14.0079 63.9474Z" fill="#FEA45A"/>
</g>
<mask id="mask10_2271_667" style="mask-type:luminance" maskUnits="userSpaceOnUse" x="48" y="33" width="24" height="32">
<path d="M71.4731 64.0873H70.4525V46.2388L48.1494 34.5979L48.6177 33.6914L71.4731 45.6204V64.0873Z" fill="white"/>
</mask>
<g mask="url(#mask10_2271_667)">
<path d="M71.4705 64.0879H70.4499V46.2382L48.1479 34.5991L48.6204 33.6944L71.4705 45.6198V64.0879Z" fill="#FEA45A"/>
</g>
<mask id="mask11_2271_667" style="mask-type:luminance" maskUnits="userSpaceOnUse" x="48" y="38" width="20" height="27">
<path d="M66.5626 64.0993L66.2204 48.316L48.1558 39.2387L48.612 38.3262L67.229 47.6797L67.5832 64.0753L66.5626 64.0993Z" fill="white"/>
</mask>
<g mask="url(#mask11_2271_667)">
<path d="M66.5645 64.1016L66.2223 48.3165L48.1553 39.2385L48.6133 38.3266L67.2291 47.6807L67.5845 64.0794L66.5645 64.1016Z" fill="#FEA45A"/>
</g>
<mask id="mask12_2271_667" style="mask-type:luminance" maskUnits="userSpaceOnUse" x="0" y="17" width="9" height="48">
<path d="M8.30398 17.9671L0.56543 21.9655V64.0863H2.63665V63.576H3.09892V46.0036L8.30398 43.212L8.80828 42.9418V17.709L8.30398 17.9671Z" fill="white"/>
</mask>
<g mask="url(#mask12_2271_667)">
<path d="M8.30035 17.9712L0.562988 21.9671V64.0879H2.63901V63.5782H3.10069V46.0041L8.30035 43.2148L8.81005 42.9417V17.7082L8.30035 17.9712Z" fill="#FEA45A"/>
</g>
<path d="M16.3135 17.219V64.5977H27.6085V63.5777H17.3335V17.8584L32.8082 10.3521V43.2143L33.3173 42.9411L33.8276 42.6674V8.72338L16.3135 17.219Z" fill="white"/>
<path d="M54.4586 31.5554L50.6722 29.5178L47.8745 28.0121V42.6878L48.8945 43.2347V29.7201L50.6722 30.6765L54.4586 32.7141L74.2654 43.3734V63.5777H54.057V64.5977H75.286V42.764L54.4586 31.5554Z" fill="white"/>
<path d="M8.87615 63.5771V63.5777H11.6924V63.5771H8.87615ZM5.22421 38.5387L16.3139 44.6371V63.5771H5.22421V38.5387ZM16.3139 43.4724L4.20361 36.8139V64.5977H17.3345V44.0332L16.3139 43.4724ZM8.87615 63.5771V63.5777H11.6924V63.5771H8.87615ZM8.87615 63.5771V63.5777H11.6924V63.5771H8.87615Z" fill="white"/>
<path d="M54.4582 45.061L50.6718 43.03L48.8941 42.0766L47.8741 41.5297L40.832 37.7529L33.8277 41.5093L33.3174 41.783L32.8083 42.0568L26.5874 45.393V64.5977H27.5738V63.5777H27.608V46.0035L32.8083 43.2143L33.3174 42.9411L33.8277 42.6674L40.832 38.9103L47.8741 42.6878L48.8941 43.2347L50.6718 44.1881L54.0566 46.0035V64.5977H55.0772V45.393L54.4582 45.061ZM26.5874 45.393V63.5777H27.608V46.0035L32.8083 43.2143V42.0568L26.5874 45.393ZM26.5874 45.393V63.5777H27.608V46.0035L32.8083 43.2143V42.0568L26.5874 45.393Z" fill="white"/>
<path d="M27.5705 7.60733L19.8776 11.5018V1.07728H19.4958V11.6951L13.6765 14.6405V8.72338H13.2947V14.8338V14.865L7.63099 17.7773L7.80509 18.1171L13.2947 15.2949V17.0185V37.9792L0.947252 30.2611V21.0787H0.56543V30.0227V36.6602V64.5977H0.947252V36.6602V30.7119L13.6765 38.6684V17.0185V15.0985L17.4197 13.1738L19.4958 12.1232V64.5977H19.8776V11.9299L27.7434 7.94833L27.5705 7.60733Z" fill="white"/>
<path d="M85.5358 43.7486L78.5603 40.0066V31.6629H78.1785V39.8019L74.0367 37.58L74.0313 37.5896L54.6483 26.8036V9.24749H54.2665V26.5911L50.8625 24.697V17.0185H50.4806V24.4845L44.668 21.2498L44.4873 21.5733L50.4806 24.9083V64.5977H50.8625V25.1208L54.2665 27.0149V64.0988H54.6483V27.2275L73.856 37.9162L73.8512 37.9258L74.4689 38.2572L78.1785 40.3212V53.1249H78.1839V64.5977H78.5549V53.1249H78.5603V40.452L85.3503 44.0944L85.5358 43.7486Z" fill="white"/>
<path d="M100.631 45L93.7963 29.1587H97.7567L103.731 43.1896H101.4L107.465 29.1587H111.109L104.252 45H100.631ZM111.199 45V32.8248H114.729V45H111.199ZM112.964 31.1275C112.315 31.1275 111.787 30.9389 111.38 30.5617C110.973 30.1846 110.769 29.7169 110.769 29.1587C110.769 28.6004 110.973 28.1327 111.38 27.7556C111.787 27.3784 112.315 27.1898 112.964 27.1898C113.613 27.1898 114.141 27.3708 114.548 27.7329C114.956 28.0799 115.159 28.5325 115.159 29.0908C115.159 29.6792 114.956 30.1695 114.548 30.5617C114.156 30.9389 113.628 31.1275 112.964 31.1275ZM124.224 32.6438C125.189 32.6438 126.049 32.8399 126.803 33.2321C127.573 33.6093 128.176 34.1977 128.614 34.9973C129.051 35.7818 129.27 36.7927 129.27 38.0298V45H125.74V38.5729C125.74 37.5923 125.521 36.8681 125.084 36.4004C124.661 35.9327 124.058 35.6989 123.273 35.6989C122.715 35.6989 122.209 35.8196 121.757 36.061C121.319 36.2873 120.972 36.6418 120.716 37.1246C120.474 37.6074 120.354 38.2259 120.354 38.9803V45H116.823V32.8248H120.195V36.1967L119.562 35.1784C119.999 34.3637 120.625 33.7376 121.44 33.3C122.255 32.8625 123.183 32.6438 124.224 32.6438ZM138.756 45V42.6238L138.53 42.1033V37.8488C138.53 37.0944 138.296 36.506 137.828 36.0836C137.375 35.6612 136.674 35.4499 135.723 35.4499C135.075 35.4499 134.434 35.5555 133.8 35.7668C133.181 35.9629 132.653 36.2345 132.216 36.5815L130.948 34.1147C131.612 33.647 132.412 33.2849 133.347 33.0285C134.283 32.772 135.233 32.6438 136.199 32.6438C138.054 32.6438 139.495 33.0813 140.521 33.9563C141.547 34.8314 142.06 36.1967 142.06 38.0524V45H138.756ZM135.045 45.181C134.094 45.181 133.279 45.0226 132.6 44.7058C131.922 44.3739 131.401 43.9288 131.039 43.3706C130.677 42.8124 130.496 42.1863 130.496 41.4923C130.496 40.7681 130.669 40.1344 131.016 39.5913C131.378 39.0482 131.944 38.6257 132.714 38.324C133.483 38.0072 134.486 37.8488 135.723 37.8488H138.96V39.9081H136.108C135.278 39.9081 134.705 40.0439 134.388 40.3155C134.087 40.5871 133.936 40.9265 133.936 41.3339C133.936 41.7865 134.109 42.1486 134.456 42.4201C134.818 42.6766 135.309 42.8048 135.927 42.8048C136.516 42.8048 137.044 42.6691 137.511 42.3975C137.979 42.1108 138.318 41.6959 138.53 41.1528L139.073 42.7822C138.816 43.5667 138.349 44.1627 137.67 44.57C136.991 44.9774 136.116 45.181 135.045 45.181ZM145.391 49.5714C144.757 49.5714 144.131 49.4733 143.512 49.2772C142.894 49.081 142.388 48.8095 141.996 48.4625L143.286 45.9505C143.558 46.1919 143.867 46.3805 144.214 46.5162C144.576 46.652 144.931 46.7199 145.278 46.7199C145.775 46.7199 146.168 46.5992 146.454 46.3578C146.756 46.1315 147.028 45.7468 147.269 45.2037L147.903 43.7101L148.174 43.3253L152.542 32.8248H155.936L150.437 45.7468C150.045 46.7275 149.592 47.4969 149.079 48.0551C148.582 48.6133 148.023 49.0056 147.405 49.2319C146.801 49.4582 146.13 49.5714 145.391 49.5714ZM147.473 45.4752L142.041 32.8248H145.685L149.894 43.0085L147.473 45.4752ZM169.252 45.2716C168.029 45.2716 166.89 45.0754 165.834 44.6832C164.793 44.2758 163.888 43.7025 163.119 42.9633C162.349 42.224 161.746 41.3565 161.308 40.3607C160.886 39.365 160.675 38.2712 160.675 37.0793C160.675 35.8875 160.886 34.7936 161.308 33.7979C161.746 32.8022 162.349 31.9347 163.119 31.1954C163.903 30.4561 164.816 29.8904 165.857 29.4981C166.898 29.0908 168.037 28.8871 169.274 28.8871C170.647 28.8871 171.884 29.1285 172.986 29.6113C174.102 30.079 175.037 30.773 175.792 31.6933L173.438 33.8658C172.895 33.2472 172.292 32.7871 171.628 32.4853C170.964 32.1685 170.24 32.0101 169.455 32.0101C168.716 32.0101 168.037 32.1308 167.418 32.3722C166.8 32.6136 166.264 32.9606 165.812 33.4132C165.359 33.8658 165.005 34.4014 164.748 35.02C164.507 35.6385 164.386 36.325 164.386 37.0793C164.386 37.8337 164.507 38.5201 164.748 39.1387C165.005 39.7573 165.359 40.2929 165.812 40.7455C166.264 41.1981 166.8 41.5451 167.418 41.7865C168.037 42.0279 168.716 42.1486 169.455 42.1486C170.24 42.1486 170.964 41.9977 171.628 41.6959C172.292 41.3791 172.895 40.9039 173.438 40.2702L175.792 42.4428C175.037 43.3631 174.102 44.0646 172.986 44.5474C171.884 45.0302 170.64 45.2716 169.252 45.2716ZM182.21 45.181C180.912 45.181 179.758 44.9095 178.747 44.3663C177.751 43.8232 176.959 43.084 176.371 42.1486C175.798 41.1981 175.511 40.1194 175.511 38.9124C175.511 37.6904 175.798 36.6116 176.371 35.6762C176.959 34.7258 177.751 33.9865 178.747 33.4584C179.758 32.9153 180.912 32.6438 182.21 32.6438C183.492 32.6438 184.639 32.9153 185.65 33.4584C186.66 33.9865 187.452 34.7182 188.026 35.6536C188.599 36.589 188.886 37.6753 188.886 38.9124C188.886 40.1194 188.599 41.1981 188.026 42.1486C187.452 43.084 186.66 43.8232 185.65 44.3663C184.639 44.9095 183.492 45.181 182.21 45.181ZM182.21 42.2843C182.798 42.2843 183.326 42.1486 183.794 41.877C184.261 41.6054 184.631 41.2207 184.903 40.7228C185.174 40.2099 185.31 39.6064 185.31 38.9124C185.31 38.2033 185.174 37.5998 184.903 37.102C184.631 36.6041 184.261 36.2194 183.794 35.9478C183.326 35.6762 182.798 35.5405 182.21 35.5405C181.621 35.5405 181.093 35.6762 180.626 35.9478C180.158 36.2194 179.781 36.6041 179.494 37.102C179.222 37.5998 179.087 38.2033 179.087 38.9124C179.087 39.6064 179.222 40.2099 179.494 40.7228C179.781 41.2207 180.158 41.6054 180.626 41.877C181.093 42.1486 181.621 42.2843 182.21 42.2843ZM197.463 32.6438C198.429 32.6438 199.289 32.8399 200.043 33.2321C200.813 33.6093 201.416 34.1977 201.854 34.9973C202.291 35.7818 202.51 36.7927 202.51 38.0298V45H198.979V38.5729C198.979 37.5923 198.761 36.8681 198.323 36.4004C197.901 35.9327 197.297 35.6989 196.513 35.6989C195.955 35.6989 195.449 35.8196 194.997 36.061C194.559 36.2873 194.212 36.6418 193.956 37.1246C193.714 37.6074 193.593 38.2259 193.593 38.9803V45H190.063V32.8248H193.435V36.1967L192.801 35.1784C193.239 34.3637 193.865 33.7376 194.68 33.3C195.494 32.8625 196.422 32.6438 197.463 32.6438ZM208.624 45.181C207.583 45.181 206.579 45.0603 205.614 44.819C204.663 44.5625 203.909 44.2457 203.351 43.8685L204.528 41.3339C205.086 41.6809 205.742 41.9675 206.496 42.1938C207.266 42.405 208.02 42.5106 208.759 42.5106C209.574 42.5106 210.147 42.4126 210.479 42.2164C210.826 42.0203 211 41.7488 211 41.4018C211 41.1151 210.864 40.9039 210.593 40.7681C210.336 40.6172 209.989 40.5041 209.552 40.4286C209.114 40.3532 208.631 40.2778 208.103 40.2023C207.59 40.1269 207.07 40.0288 206.542 39.9081C206.014 39.7724 205.531 39.5762 205.093 39.3197C204.656 39.0633 204.301 38.7163 204.03 38.2787C203.773 37.8412 203.645 37.2755 203.645 36.5815C203.645 35.812 203.864 35.1331 204.301 34.5447C204.754 33.9563 205.403 33.4962 206.247 33.1643C207.092 32.8173 208.103 32.6438 209.28 32.6438C210.11 32.6438 210.955 32.7343 211.815 32.9153C212.675 33.0964 213.391 33.3604 213.964 33.7074L212.788 36.2194C212.199 35.8724 211.603 35.6385 211 35.5178C210.412 35.382 209.838 35.3141 209.28 35.3141C208.495 35.3141 207.922 35.4198 207.56 35.631C207.198 35.8422 207.017 36.1138 207.017 36.4457C207.017 36.7474 207.145 36.9737 207.402 37.1246C207.673 37.2755 208.028 37.3962 208.465 37.4867C208.903 37.5772 209.378 37.6602 209.891 37.7356C210.419 37.796 210.947 37.894 211.475 38.0298C212.003 38.1656 212.478 38.3617 212.901 38.6182C213.338 38.8596 213.693 39.1991 213.964 39.6366C214.236 40.059 214.372 40.6172 214.372 41.3112C214.372 42.0656 214.146 42.737 213.693 43.3253C213.24 43.8986 212.584 44.3513 211.724 44.6832C210.879 45.0151 209.846 45.181 208.624 45.181ZM220.346 45.181C218.913 45.181 217.797 44.819 216.997 44.0948C216.197 43.3555 215.798 42.2617 215.798 40.8134V30.1318H219.328V40.7681C219.328 41.2811 219.464 41.6809 219.735 41.9675C220.007 42.2391 220.377 42.3749 220.844 42.3749C221.402 42.3749 221.878 42.224 222.27 41.9223L223.22 44.4116C222.858 44.6681 222.421 44.8642 221.908 45C221.41 45.1207 220.89 45.181 220.346 45.181ZM213.919 35.812V33.0964H222.36V35.812H213.919ZM224.02 45V32.8248H227.392V36.2646L226.917 35.2689C227.279 34.4089 227.859 33.7602 228.659 33.3227C229.459 32.8701 230.432 32.6438 231.578 32.6438V35.9025C231.428 35.8875 231.292 35.8799 231.171 35.8799C231.05 35.8648 230.922 35.8573 230.786 35.8573C229.821 35.8573 229.036 36.1364 228.433 36.6946C227.844 37.2377 227.55 38.0902 227.55 39.2519V45H224.02ZM237.721 45.181C236.71 45.181 235.805 44.9849 235.005 44.5927C234.221 44.2004 233.61 43.6045 233.172 42.8048C232.735 41.9901 232.516 40.9567 232.516 39.7045V32.8248H236.046V39.184C236.046 40.1948 236.257 40.9416 236.68 41.4244C237.117 41.8921 237.728 42.1259 238.513 42.1259C239.056 42.1259 239.539 42.0128 239.961 41.7865C240.384 41.5451 240.716 41.183 240.957 40.7002C241.198 40.2023 241.319 39.5838 241.319 38.8445V32.8248H244.849V45H241.5V41.6507L242.111 42.6238C241.704 43.4687 241.1 44.1099 240.301 44.5474C239.516 44.9698 238.656 45.181 237.721 45.181ZM252.822 45.181C251.509 45.181 250.34 44.917 249.314 44.389C248.288 43.8458 247.481 43.099 246.892 42.1486C246.319 41.1981 246.032 40.1194 246.032 38.9124C246.032 37.6904 246.319 36.6116 246.892 35.6762C247.481 34.7258 248.288 33.9865 249.314 33.4584C250.34 32.9153 251.509 32.6438 252.822 32.6438C254.104 32.6438 255.22 32.9153 256.171 33.4584C257.121 33.9865 257.823 34.7484 258.276 35.7441L255.537 37.2151C255.22 36.6418 254.821 36.2194 254.338 35.9478C253.87 35.6762 253.357 35.5405 252.799 35.5405C252.195 35.5405 251.652 35.6762 251.17 35.9478C250.687 36.2194 250.302 36.6041 250.015 37.102C249.744 37.5998 249.608 38.2033 249.608 38.9124C249.608 39.6215 249.744 40.225 250.015 40.7228C250.302 41.2207 250.687 41.6054 251.17 41.877C251.652 42.1486 252.195 42.2843 252.799 42.2843C253.357 42.2843 253.87 42.1561 254.338 41.8996C254.821 41.6281 255.22 41.1981 255.537 40.6097L258.276 42.1033C257.823 43.084 257.121 43.8458 256.171 44.389C255.22 44.917 254.104 45.181 252.822 45.181ZM264.281 45.181C262.848 45.181 261.732 44.819 260.932 44.0948C260.132 43.3555 259.733 42.2617 259.733 40.8134V30.1318H263.263V40.7681C263.263 41.2811 263.399 41.6809 263.67 41.9675C263.942 42.2391 264.312 42.3749 264.779 42.3749C265.337 42.3749 265.813 42.224 266.205 41.9223L267.155 44.4116C266.793 44.6681 266.356 44.8642 265.843 45C265.345 45.1207 264.824 45.181 264.281 45.181ZM257.854 35.812V33.0964H266.295V35.812H257.854ZM267.955 45V32.8248H271.485V45H267.955ZM269.72 31.1275C269.071 31.1275 268.543 30.9389 268.136 30.5617C267.729 30.1846 267.525 29.7169 267.525 29.1587C267.525 28.6004 267.729 28.1327 268.136 27.7556C268.543 27.3784 269.071 27.1898 269.72 27.1898C270.369 27.1898 270.897 27.3708 271.304 27.7329C271.711 28.0799 271.915 28.5325 271.915 29.0908C271.915 29.6792 271.711 30.1695 271.304 30.5617C270.912 30.9389 270.384 31.1275 269.72 31.1275ZM279.373 45.181C278.075 45.181 276.921 44.9095 275.91 44.3663C274.914 43.8232 274.122 43.084 273.534 42.1486C272.961 41.1981 272.674 40.1194 272.674 38.9124C272.674 37.6904 272.961 36.6116 273.534 35.6762C274.122 34.7258 274.914 33.9865 275.91 33.4584C276.921 32.9153 278.075 32.6438 279.373 32.6438C280.655 32.6438 281.802 32.9153 282.813 33.4584C283.823 33.9865 284.615 34.7182 285.189 35.6536C285.762 36.589 286.049 37.6753 286.049 38.9124C286.049 40.1194 285.762 41.1981 285.189 42.1486C284.615 43.084 283.823 43.8232 282.813 44.3663C281.802 44.9095 280.655 45.181 279.373 45.181ZM279.373 42.2843C279.961 42.2843 280.489 42.1486 280.957 41.877C281.425 41.6054 281.794 41.2207 282.066 40.7228C282.337 40.2099 282.473 39.6064 282.473 38.9124C282.473 38.2033 282.337 37.5998 282.066 37.102C281.794 36.6041 281.425 36.2194 280.957 35.9478C280.489 35.6762 279.961 35.5405 279.373 35.5405C278.784 35.5405 278.256 35.6762 277.789 35.9478C277.321 36.2194 276.944 36.6041 276.657 37.102C276.385 37.5998 276.25 38.2033 276.25 38.9124C276.25 39.6064 276.385 40.2099 276.657 40.7228C276.944 41.2207 277.321 41.6054 277.789 41.877C278.256 42.1486 278.784 42.2843 279.373 42.2843ZM294.626 32.6438C295.592 32.6438 296.452 32.8399 297.206 33.2321C297.976 33.6093 298.579 34.1977 299.017 34.9973C299.454 35.7818 299.673 36.7927 299.673 38.0298V45H296.143V38.5729C296.143 37.5923 295.924 36.8681 295.486 36.4004C295.064 35.9327 294.46 35.6989 293.676 35.6989C293.118 35.6989 292.612 35.8196 292.16 36.061C291.722 36.2873 291.375 36.6418 291.119 37.1246C290.877 37.6074 290.756 38.2259 290.756 38.9803V45H287.226V32.8248H290.598V36.1967L289.964 35.1784C290.402 34.3637 291.028 33.7376 291.843 33.3C292.657 32.8625 293.585 32.6438 294.626 32.6438Z" fill="white"/>
<path d="M137.15 62.7578L140.426 55.5235H141.449L144.735 62.7578H143.65L140.726 56.1023H141.139L138.214 62.7578H137.15ZM138.545 60.9492L138.824 60.1225H142.896L143.196 60.9492H138.545ZM148.915 62.7578V55.5235H149.763L154.547 61.466H154.103V55.5235H155.137V62.7578H154.289L149.504 56.8154H149.949V62.7578H148.915ZM160.402 62.7578V55.5235H163.451C164.223 55.5235 164.901 55.6751 165.487 55.9783C166.08 56.2814 166.538 56.7051 166.862 57.2494C167.192 57.7937 167.358 58.4241 167.358 59.1407C167.358 59.8572 167.192 60.4876 166.862 61.0319C166.538 61.5762 166.08 61.9999 165.487 62.3031C164.901 62.6062 164.223 62.7578 163.451 62.7578H160.402ZM161.436 61.8587H163.389C163.988 61.8587 164.505 61.745 164.939 61.5176C165.38 61.2903 165.721 60.9734 165.962 60.5669C166.204 60.1535 166.324 59.6781 166.324 59.1407C166.324 58.5964 166.204 58.121 165.962 57.7145C165.721 57.308 165.38 56.9911 164.939 56.7637C164.505 56.5363 163.988 56.4226 163.389 56.4226H161.436V61.8587ZM177.917 62.7578V55.5235H178.95V62.7578H177.917ZM184.217 62.7578V55.5235H185.064L189.849 61.466H189.405V55.5235H190.438V62.7578H189.591L184.806 56.8154H185.25V62.7578H184.217ZM197.14 62.7578V56.4226H194.66V55.5235H200.644V56.4226H198.163V62.7578H197.14ZM205.81 58.6446H209.531V59.5231H205.81V58.6446ZM205.903 61.8587H210.12V62.7578H204.87V55.5235H209.975V56.4226H205.903V61.8587ZM214.894 62.7578V55.5235H217.715C218.349 55.5235 218.89 55.6234 219.338 55.8232C219.785 56.023 220.13 56.3124 220.371 56.6913C220.612 57.0703 220.733 57.5216 220.733 58.0452C220.733 58.5688 220.612 59.0201 220.371 59.399C220.13 59.7711 219.785 60.057 219.338 60.2568C218.89 60.4566 218.349 60.5565 217.715 60.5565H215.462L215.927 60.0811V62.7578H214.894ZM219.73 62.7578L217.891 60.1328H218.996L220.857 62.7578H219.73ZM215.927 60.1845L215.462 59.6781H217.684C218.345 59.6781 218.845 59.5368 219.183 59.2544C219.527 58.965 219.699 58.5619 219.699 58.0452C219.699 57.5285 219.527 57.1288 219.183 56.8464C218.845 56.5639 218.345 56.4226 217.684 56.4226H215.462L215.927 55.9059V60.1845ZM225.503 62.7578V55.5235H226.536V62.7578H225.503ZM235.068 62.8405C234.517 62.8405 234.004 62.7475 233.528 62.5615C233.06 62.3754 232.653 62.1171 232.309 61.7864C231.964 61.4488 231.696 61.056 231.503 60.6082C231.31 60.1604 231.213 59.6712 231.213 59.1407C231.213 58.6102 231.31 58.121 231.503 57.6731C231.696 57.2253 231.964 56.836 232.309 56.5053C232.653 56.1677 233.06 55.9059 233.528 55.7199C233.997 55.5339 234.51 55.4408 235.068 55.4408C235.619 55.4408 236.126 55.5339 236.588 55.7199C237.056 55.899 237.463 56.1574 237.807 56.495C238.158 56.8257 238.427 57.215 238.613 57.6628C238.806 58.1106 238.902 58.6033 238.902 59.1407C238.902 59.6781 238.806 60.1707 238.613 60.6185C238.427 61.0664 238.158 61.4591 237.807 61.7967C237.463 62.1274 237.056 62.3858 236.588 62.5718C236.126 62.7509 235.619 62.8405 235.068 62.8405ZM235.068 61.9207C235.468 61.9207 235.837 61.8518 236.174 61.714C236.519 61.5762 236.815 61.3833 237.063 61.1353C237.318 60.8803 237.514 60.5841 237.652 60.2465C237.797 59.9089 237.869 59.5403 237.869 59.1407C237.869 58.7411 237.797 58.3725 237.652 58.0349C237.514 57.6973 237.318 57.4044 237.063 57.1564C236.815 56.9015 236.519 56.7051 236.174 56.5673C235.837 56.4295 235.468 56.3606 235.068 56.3606C234.662 56.3606 234.286 56.4295 233.942 56.5673C233.604 56.7051 233.308 56.9015 233.053 57.1564C232.798 57.4044 232.598 57.6973 232.454 58.0349C232.316 58.3725 232.247 58.7411 232.247 59.1407C232.247 59.5403 232.316 59.9089 232.454 60.2465C232.598 60.5841 232.798 60.8803 233.053 61.1353C233.308 61.3833 233.604 61.5762 233.942 61.714C234.286 61.8518 234.662 61.9207 235.068 61.9207ZM243.582 62.7578V55.5235H246.404C247.038 55.5235 247.579 55.6234 248.026 55.8232C248.474 56.023 248.819 56.3124 249.06 56.6913C249.301 57.0703 249.422 57.5216 249.422 58.0452C249.422 58.5688 249.301 59.0201 249.06 59.399C248.819 59.7711 248.474 60.057 248.026 60.2568C247.579 60.4566 247.038 60.5565 246.404 60.5565H244.151L244.616 60.0811V62.7578H243.582ZM248.419 62.7578L246.58 60.1328H247.685L249.546 62.7578H248.419ZM244.616 60.1845L244.151 59.6781H246.373C247.034 59.6781 247.534 59.5368 247.871 59.2544C248.216 58.965 248.388 58.5619 248.388 58.0452C248.388 57.5285 248.216 57.1288 247.871 56.8464C247.534 56.5639 247.034 56.4226 246.373 56.4226H244.151L244.616 55.9059V60.1845ZM256.3 62.8405C255.749 62.8405 255.222 62.7578 254.719 62.5925C254.216 62.4202 253.82 62.1997 253.53 61.931L253.913 61.1249C254.188 61.3661 254.54 61.5659 254.967 61.7243C255.394 61.8828 255.838 61.962 256.3 61.962C256.72 61.962 257.061 61.9138 257.323 61.8174C257.585 61.7209 257.778 61.59 257.902 61.4246C258.026 61.2524 258.088 61.0595 258.088 60.8459C258.088 60.5979 258.005 60.3981 257.84 60.2465C257.681 60.0949 257.471 59.9743 257.209 59.8848C256.955 59.7883 256.672 59.7056 256.362 59.6367C256.052 59.5678 255.738 59.4886 255.422 59.399C255.111 59.3026 254.826 59.182 254.564 59.0373C254.309 58.8926 254.102 58.6997 253.944 58.4586C253.785 58.2105 253.706 57.8936 253.706 57.5078C253.706 57.1357 253.802 56.7947 253.995 56.4847C254.195 56.1677 254.498 55.9162 254.905 55.7302C255.318 55.5373 255.842 55.4408 256.476 55.4408C256.896 55.4408 257.313 55.496 257.726 55.6062C258.14 55.7164 258.498 55.8749 258.801 56.0816L258.46 56.9084C258.15 56.7017 257.823 56.5536 257.478 56.464C257.134 56.3675 256.799 56.3193 256.476 56.3193C256.069 56.3193 255.735 56.371 255.473 56.4743C255.211 56.5777 255.018 56.7155 254.894 56.8877C254.777 57.06 254.719 57.2529 254.719 57.4664C254.719 57.7214 254.798 57.9246 254.956 58.0762C255.122 58.2278 255.332 58.3483 255.587 58.4379C255.849 58.5275 256.135 58.6102 256.445 58.6859C256.755 58.7548 257.065 58.8341 257.375 58.9236C257.692 59.0132 257.978 59.1303 258.233 59.275C258.494 59.4197 258.705 59.6126 258.863 59.8538C259.021 60.0949 259.101 60.4049 259.101 60.7839C259.101 61.149 259.001 61.4901 258.801 61.807C258.601 62.1171 258.291 62.3685 257.871 62.5615C257.457 62.7475 256.934 62.8405 256.3 62.8405Z" fill="white"/>
<path d="M96.6592 59.2363H129.066" stroke="#FEA45A" stroke-width="0.466929"/>
<path d="M267.877 59.2363H300.284" stroke="#FEA45A" stroke-width="0.466929"/>
<defs>
<clipPath id="clip0_2271_667">
<rect width="2.29335" height="2.29335" fill="white" transform="translate(37.8535 49.8535)"/>
</clipPath>
<clipPath id="clip1_2271_667">
<rect width="2.29335" height="2.29335" fill="white" transform="translate(41.5156 49.8535)"/>
</clipPath>
<clipPath id="clip2_2271_667">
<rect width="2.29335" height="2.28734" fill="white" transform="translate(37.8535 53.4902)"/>
</clipPath>
<clipPath id="clip3_2271_667">
<rect width="2.29335" height="2.28734" fill="white" transform="translate(41.5156 53.4902)"/>
</clipPath>
</defs>
</svg>
